<svg style="height: 54.5px;" xmlns="http://www.w3.org/2000/svg" viewBox="0 0 2328.81 1000"><defs><style>.cls-1,.cls-5{fill:none;}.cls-1,.cls-6{stroke:#083341;stroke-miterlimit:10;}.cls-1{stroke-linecap:round;stroke-width:28px;}.cls-2,.cls-6{fill:#083341;}.cls-3{fill:#467483;}.cls-4{fill:#0f5262;}.cls-6{stroke-width:18px;}</style></defs><title>Vector_text_n_logo_svg</title><g id="Triangle"><path class="cls-1" d="M486.88,749l125.6-218.16,27-46.84,27,46.84L792,749" transform="translate(-40.45 0)"/><line class="cls-1" x1="599" y1="607.68" x2="599" y2="738.36"/><polygon class="cls-2" points="924.28 850 864.3 745.82 700.68 461.63 685.7 435.61 599 285.02 0 1000 217.36 637.74 216.72 637.14 337.63 435.61 384.65 357.25 599 0 924.28 850"/><path class="cls-3" d="M639.45,285l-86.7,150.59-15,26L374.62,745l.65.6L315.17,850l160.59,26.06-41.68,89.31A60,60,0,0,1,379.71,1000H40.45Z" transform="translate(-40.45 0)"/><polygon class="cls-4" points="1199 1000 790.74 933.74 751.66 850 924.28 850 599 0 813.35 357.25 860.37 435.61 981.4 637.34 1199 1000"/><path class="cls-3" d="M1239.45,1000H900.32A60,60,0,0,1,846,965.37l-14.76-31.63Z" transform="translate(-40.45 0)"/><polygon class="cls-4" points="447.47 850 435.31 876.06 274.72 850 447.47 850"/><line class="cls-5" x1="790.74" y1="933.74" x2="435.31" y2="876.06"/></g><g id="Text"><polygon class="cls-3" points="1351.31 784.62 1283.31 623.78 1243.87 825.92 1266.44 825.92 1290.88 693.77 1351.31 833.49 1411.47 693.77 1436.18 825.92 1458.76 825.92 1419.31 623.78 1351.31 784.62"/><path class="cls-3" d="M1619.4,727.24q-6.9-13.54-18.13-20.38T1574.78,700q-26,0-41.57,17.73t-15.54,47.74q0,29.63,16,47.62t42.17,18a47.62,47.62,0,0,0,25.43-7q11.36-7,18.66-20.25v22h20.19V704.4H1619.4Zm-10,71.52q-10.55,11.63-29.15,11.62-19.4,0-30-12t-10.56-34q0-20.71,10.5-32.27t29.22-11.56q18.06,0,29.28,12.55t11.22,33.14Q1619.93,787.14,1609.37,798.76Z" transform="translate(-40.45 0)"/><path class="cls-3" d="M1780,711.44Q1767.88,700,1746.37,700q-14.47,0-25.5,5.71a50.91,50.91,0,0,0-18.86,17.4V704.4h-20.32V825.92h20.59V763.1q0-15.14,1.66-21.25a29.37,29.37,0,0,1,5.51-10.89,33.49,33.49,0,0,1,12.68-9.63,41.3,41.3,0,0,1,16.94-3.38q16.2,0,24,9t7.77,27.43v71.58h21.25V743.18Q1792.06,722.86,1780,711.44Z" transform="translate(-40.45 0)"/><path class="cls-3" d="M1925.67,727.24q-6.92-13.54-18.13-20.38T1881,700q-26,0-41.57,17.73t-15.54,47.74q0,29.63,16,47.62t42.16,18a47.63,47.63,0,0,0,25.44-7q11.36-7,18.66-20.25v22h20.19V704.4h-20.72Zm-10,71.52q-10.56,11.63-29.15,11.62-19.4,0-30-12t-10.56-34q0-20.71,10.49-32.27t29.22-11.56q18.06,0,29.29,12.55t11.22,33.14Q1926.2,787.14,1915.64,798.76Z" transform="translate(-40.45 0)"/><path class="cls-3" d="M2080.39,727q-6.63-13.29-18.06-20.12T2035.77,700q-26,0-41.57,17.46t-15.54,47.22q0,29.47,16,47.28t42.17,17.79a48.16,48.16,0,0,0,25.63-7,51.48,51.48,0,0,0,18.47-20v20.46a92.8,92.8,0,0,1-1.2,17.13,31.86,31.86,0,0,1-4,10.49,29.33,29.33,0,0,1-13.48,12Q2053.44,867,2041,867q-17.27,0-26.7-7.44t-9.43-21.11v-1.6h-23.37q.66,23.12,16.14,35.73t43.09,12.62q15.94,0,28.23-4.52A52.71,52.71,0,0,0,2089.69,867a39.87,39.87,0,0,0,8.77-15q2.65-8.36,2.65-28.15V704.4h-20.72Zm-10,71.12q-10.56,11.74-29.16,11.75-19.38,0-29.94-12t-10.56-34q0-20.71,10.49-32.27t29.22-11.56q18.2,0,29.35,12.49t11.16,32.93Q2080.93,786.34,2070.37,798.1Z" transform="translate(-40.45 0)"/><path class="cls-3" d="M2193.28,699.75q-26.69,0-43.69,18.2t-17,46.75q0,29.74,17.13,48.07t44.89,18.33q18.73,0,32.94-8.37t23.38-24.83l-15.81-10.63q-7.57,13.29-17.4,19.86a38.77,38.77,0,0,1-22,6.57q-17.94,0-29.09-12t-11.16-31.54v-1.86h96.29v-4.12q0-29.88-15.74-47.14T2193.28,699.75Zm-37.85,51.66q1.61-15.27,11.69-24.37t25.23-9.09q16.74,0,26.37,8.7t10.69,24.76Z" transform="translate(-40.45 0)"/><path class="cls-3" d="M2349.74,700.88a42,42,0,0,0-7.17-.6q-13.56,0-23,6.78t-17.8,22.57V704.4h-18.46V825.92h20.59V766.69q0-23.91,8.23-35.79t24.7-11.89a33,33,0,0,1,6.11.6,49.65,49.65,0,0,1,6.78,1.79l6.9-18.73A44.93,44.93,0,0,0,2349.74,700.88Z" transform="translate(-40.45 0)"/><path class="cls-6" d="M1596.78,311.66q-39.73,0-65.06,27.09t-25.31,69.61q0,44.29,25.51,71.58t66.84,27.29q27.88,0,49-12.45t34.8-37L1659.08,442q-11.28,19.77-25.91,29.56a57.7,57.7,0,0,1-32.82,9.79q-26.7,0-43.31-17.9t-16.61-47V413.7H1683.8v-6.13q0-44.51-23.44-70.21T1596.78,311.66Zm-56.35,76.92q2.37-22.74,17.4-36.29t37.57-13.54q24.91,0,39.26,12.95t15.91,36.88Z" transform="translate(-40.45 0)"/><path class="cls-6" d="M1813.52,477.18q-27.87,0-46.37-18.79t-18.49-46.67q0-31.64,18.39-50.72t48.85-19.09a83.8,83.8,0,0,1,25.7,4.06,102,102,0,0,1,24.53,11.76V324.51a121.91,121.91,0,0,0-27-9.29,135.85,135.85,0,0,0-29.36-3.17q-41.34,0-67.83,27.59t-26.5,71.09q0,43.31,25.61,69.91t67.53,26.59a142.84,142.84,0,0,0,33.12-3.65,98.08,98.08,0,0,0,27.59-11v-36q-14.83,10.68-28.28,15.62A79,79,0,0,1,1813.52,477.18Z" transform="translate(-40.45 0)"/><path class="cls-6" d="M2049,260l54.1-40.7L2049,178.53v16h-88.23v-73h-55.64v73H1820a36,36,0,0,0-36,35.83L1784,244h121.19V509.48h55.64V244H2049Z" transform="translate(-40.45 0)"/><path class="cls-6" d="M1538.06,194.49h-38.5a35.77,35.77,0,0,0-33.55,23l-70.53,181.46-79.81-204.42h-63.49l143.35,348.38,110.88-270.75Z" transform="translate(-40.45 0)"/><path class="cls-6" d="M2170.67,340.73a102.56,102.56,0,0,0-27.6-19.35q-2.25-1.06-4.54-2a97.07,97.07,0,0,0-37.47-7.32,100.07,100.07,0,0,0-38,7.22,96.74,96.74,0,0,0-31.84,21.06,94.87,94.87,0,0,0-21.36,31.54,97.59,97.59,0,0,0-7.31,37.67,95.4,95.4,0,0,0,7.31,37.38,98,98,0,0,0,29,38.5,98,98,0,0,0,62.12,21.81,95.31,95.31,0,0,0,37.27-7.51A102.05,102.05,0,0,0,2170.67,478,93.15,93.15,0,0,0,2192,446.82a95.63,95.63,0,0,0,7.32-37.28,97.07,97.07,0,0,0-7.32-37.47A92.52,92.52,0,0,0,2170.67,340.73Zm-23.54,117.36q-19,19.88-46.07,19.88-26.57,0-45.43-18.83l-1-1.05q-19.19-19.87-19.19-48.55T2054.49,361q19.08-19.87,46.57-19.88a62.17,62.17,0,0,1,26,5.41,64.36,64.36,0,0,1,20,14.47q19,19.86,19,48.54T2147.13,458.09Z" transform="translate(-40.45 0)"/><path class="cls-6" d="M2347.36,314.31a62.91,62.91,0,0,0-10.68-.89q-20.17,0-34.21,10.09T2276,357.13V319.56h-27.49V500.5h30.65V412.3q0-35.6,12.26-53.29t36.79-17.7a48.78,48.78,0,0,1,9.09.89,75.59,75.59,0,0,1,10.09,2.67L2357.64,317A67.08,67.08,0,0,0,2347.36,314.31Z" transform="translate(-40.45 0)"/></g></svg>